<?xml version="1.0" encoding="utf-8"?>
<!-- Generator: Adobe Illustrator 19.2.1, SVG Export Plug-In . SVG Version: 6.00 Build 0)  -->
<svg version="1.1" id="Layer_1" xmlns="http://www.w3.org/2000/svg" xmlns:xlink="http://www.w3.org/1999/xlink" x="0px" y="0px"
	 viewBox="0 0 410 410" style="enable-background:new 0 0 410 410;" xml:space="preserve">
<style type="text/css">
	.st2{fill:#fff;}
	.st3{fill-rule:evenodd;clip-rule:evenodd;fill:none;stroke:#fff;stroke-width:4;stroke-miterlimit:10;}
	.st4{fill-rule:evenodd;clip-rule:evenodd;fill:none;stroke:#fff;stroke-width:4;stroke-linecap:round;stroke-miterlimit:10;}
</style>

<g>
	<g>
		<g>
			<path class="st2" d="M115.5,80c0.5,0,1-0.2,1.5-0.5c1.1-0.8,1.4-2.4,0.6-3.5c-0.8-1.1-2.4-1.4-3.5-0.6l0,0
				c-1.1,0.8-1.4,2.4-0.6,3.5C113.9,79.6,114.7,80,115.5,80z M132.5,69.6c0.4,0,0.8-0.1,1.2-0.3c1.2-0.6,1.7-2.1,1.1-3.3
				c-0.6-1.2-2.1-1.7-3.4-1.1c0,0-0.1,0-0.1,0.1c-1.2,0.7-1.6,2.2-0.9,3.4C130.7,69.2,131.6,69.6,132.5,69.6z M117.1,329.6
				c-1-0.7-2.5-0.5-3.3,0.4c-0.9,1-0.8,2.6,0.3,3.5c0.1,0.1,0.3,0.2,0.4,0.3c0.4,0.2,0.8,0.3,1.2,0.3c0.9,0,1.7-0.5,2.2-1.3
				C118.5,331.8,118.2,330.4,117.1,329.6z M101.8,317.4c-1-0.9-2.6-0.8-3.5,0.3c-0.9,1-0.8,2.5,0.2,3.5c0.5,0.5,1.1,0.7,1.7,0.7
				c0.6,0,1.3-0.2,1.8-0.7c1-1,1-2.6,0-3.5C101.9,317.5,101.9,317.5,101.8,317.4z M100,92.4c0.6,0,1.2-0.2,1.7-0.6
				c1-0.8,1.1-2.3,0.4-3.3c-0.8-1.1-2.4-1.4-3.5-0.6c-0.1,0.1-0.2,0.2-0.3,0.3c-1,1-1,2.6,0,3.5C98.7,92.1,99.3,92.4,100,92.4z
				 M84.8,303.1c-1.1,0.8-1.3,2.4-0.5,3.5c0,0,0.1,0.1,0.1,0.1c0.5,0.6,1.2,0.9,1.9,0.9c0.6,0,1.1-0.2,1.6-0.6
				c1.1-0.9,1.2-2.4,0.4-3.5C87.5,302.4,85.9,302.2,84.8,303.1z M169.7,55.9c0.2,0,0.4,0,0.5-0.1c1.3-0.3,2.2-1.6,1.9-3
				c-0.3-1.3-1.6-2.2-3-1.9c0,0-0.1,0-0.1,0c-1.3,0.3-2.1,1.7-1.8,3C167.5,55.1,168.5,55.9,169.7,55.9z M189.3,52.7
				c0.1,0,0.1,0,0.2,0c1.3-0.1,2.3-1.2,2.3-2.5c0-1.5-1.3-2.7-2.8-2.5c-1.4,0.2-2.3,1.4-2.2,2.8C186.9,51.8,188,52.7,189.3,52.7z
				 M189.8,356.3c-1.2-0.1-2.4,0.7-2.7,1.9c-0.3,1.3,0.6,2.7,1.9,3c0.2,0,0.4,0.1,0.6,0.1c1.4,0,2.5-1.1,2.5-2.5
				C192.1,357.5,191.1,356.4,189.8,356.3z M133.9,339.8c-1.2-0.6-2.7-0.2-3.3,1c-0.7,1.2-0.3,2.7,0.9,3.4c0,0,0.1,0.1,0.1,0.1
				c0.4,0.2,0.7,0.3,1.1,0.3c0.9,0,1.8-0.5,2.2-1.4C135.6,341.9,135.1,340.4,133.9,339.8z M150.6,61.6c0.3,0,0.6-0.1,0.9-0.2
				c1.3-0.5,1.9-1.9,1.5-3.2c-0.5-1.3-1.9-1.9-3.2-1.5l0,0c-1.3,0.5-1.9,1.9-1.5,3.2C148.6,60.9,149.6,61.6,150.6,61.6z
				 M151.7,347.7c-1.2-0.4-2.5,0.1-3.1,1.2c-0.6,1.2-0.1,2.7,1.1,3.4c0.2,0.1,0.3,0.1,0.5,0.2c0.2,0.1,0.4,0.1,0.6,0.1
				c1.1,0,2.1-0.8,2.4-1.9C153.6,349.4,152.9,348.1,151.7,347.7z M49.3,197.2c0.1,0,0.2,0,0.3,0c1.2,0,2.3-0.9,2.5-2.2
				c0-0.1,0-0.2,0-0.3c0-1.4-1.1-2.5-2.5-2.5c-1.3,0-2.4,1-2.5,2.3C47,195.9,47.9,197,49.3,197.2z M51.5,177.5
				c0.2,0.1,0.4,0.1,0.6,0.1c1.1,0,2.1-0.8,2.4-1.9c0-0.1,0-0.2,0.1-0.3c0.2-1.4-0.8-2.6-2.2-2.8c-1.3-0.1-2.5,0.7-2.7,2
				C49.4,175.9,50.2,177.1,51.5,177.5z M355.7,184.7c0.2,1.2,1.2,2.1,2.5,2.1c1.4,0,2.5-1.1,2.5-2.5c0-0.2,0-0.4-0.1-0.6
				c-0.3-1.3-1.7-2.2-3-1.8C356.3,182.2,355.5,183.5,355.7,184.7z M52.1,214.4c-0.1-1.3-1.2-2.3-2.5-2.3c-1.4,0-2.5,1.1-2.5,2.5
				c0,0.1,0,0.2,0,0.3c0.2,1.3,1.2,2.2,2.5,2.2c0.1,0,0.2,0,0.3,0C51.3,216.9,52.2,215.7,52.1,214.4z M56.2,158.2
				c0.3,0.1,0.6,0.2,0.9,0.2c1,0,2-0.6,2.3-1.6c0-0.1,0.1-0.2,0.1-0.3c0.3-1.3-0.5-2.7-1.8-3c-1.3-0.3-2.6,0.4-3,1.7
				C54.3,156.3,55,157.7,56.2,158.2z M63.5,269.6c-1.2,0.6-1.7,2.1-1.1,3.4l0,0c0.4,0.9,1.3,1.4,2.2,1.4c0.4,0,0.8-0.1,1.1-0.3
				c1.2-0.6,1.7-2.1,1.1-3.4C66.3,269.5,64.8,269,63.5,269.6z M51.8,231.8c-1.4,0.2-2.3,1.4-2.2,2.8c0,0.1,0,0.2,0.1,0.3
				c0.3,1.1,1.3,1.9,2.4,1.9c0.2,0,0.4,0,0.6-0.1c1.3-0.3,2.1-1.6,1.8-2.9C54.3,232.5,53.1,231.6,51.8,231.8z M86.2,106.7
				c0.7,0,1.4-0.3,1.9-0.9c0.9-1,0.8-2.6-0.3-3.5c-1-0.9-2.6-0.8-3.5,0.3c0,0,0,0,0,0c-0.9,1.1-0.7,2.6,0.3,3.5
				C85,106.5,85.6,106.7,86.2,106.7z M72.8,122.1c0.4,0.3,0.9,0.5,1.5,0.5c0.8,0,1.5-0.4,2-1c0-0.1,0.1-0.1,0.1-0.2
				c0.7-1.2,0.3-2.7-0.9-3.4c-1.2-0.7-2.6-0.3-3.3,0.8C71.5,119.8,71.7,121.3,72.8,122.1z M56.6,251.1c-1.3,0.3-2.2,1.7-1.8,3
				c0,0.1,0.1,0.2,0.1,0.3c0.4,1,1.3,1.6,2.3,1.6c0.3,0,0.6-0.1,0.9-0.2c1.3-0.5,1.9-1.9,1.5-3.1C59.2,251.5,57.9,250.7,56.6,251.1z
				 M63.4,139.6c0.4,0.2,0.7,0.3,1.1,0.3c0.9,0,1.8-0.5,2.2-1.4c0,0,0-0.1,0.1-0.1c0.5-1.3,0-2.7-1.3-3.3c-1.2-0.5-2.7,0-3.2,1.2
				C61.7,137.5,62.2,139,63.4,139.6z M299.4,85.2c0.5,0.3,1,0.5,1.5,0.5c0.8,0,1.5-0.3,2-1c0.8-1.1,0.6-2.6-0.4-3.5
				c-1.1-0.8-2.6-0.7-3.5,0.4c-0.9,1.1-0.7,2.6,0.3,3.5C299.3,85.1,299.4,85.1,299.4,85.2z M348.1,148.5c0.2,0,0.4,0,0.6-0.1
				c1.3-0.3,2.2-1.7,1.8-3c0-0.2-0.1-0.4-0.2-0.5c-0.6-1.2-2.1-1.7-3.4-1.1c-1.2,0.6-1.7,2-1.2,3.2
				C346.1,147.9,347.1,148.5,348.1,148.5z M339.4,130.7c0.4,0,0.8-0.1,1.1-0.3c1.2-0.6,1.7-2.1,1.1-3.4c0,0,0-0.1-0.1-0.1
				c-0.7-1.2-2.2-1.6-3.4-0.9c-1.2,0.7-1.6,2.2-1,3.4C337.7,130.2,338.5,130.7,339.4,130.7z M340.7,278.3c-1.2-0.6-2.7-0.1-3.3,1
				c-0.6,1.1-0.3,2.6,0.8,3.3c0.4,0.3,0.9,0.4,1.4,0.4c0.8,0,1.6-0.4,2.1-1.1c0.1-0.1,0.1-0.2,0.2-0.3
				C342.4,280.5,341.9,279,340.7,278.3z M326.9,295.4c-0.2,0.2-0.4,0.4-0.5,0.7c-0.6,1.2-0.1,2.7,1.1,3.4c0.4,0.2,0.7,0.3,1.1,0.3
				c0.8,0,1.5-0.4,2-1c0.8-1,0.7-2.4-0.2-3.3C329.5,294.5,327.9,294.5,326.9,295.4z M328.5,114.1c0.5,0,1-0.1,1.4-0.4
				c1.1-0.8,1.5-2.3,0.7-3.5c-0.1-0.1-0.1-0.2-0.2-0.3c-0.9-1-2.5-1.2-3.5-0.3c-1,0.9-1.2,2.4-0.3,3.5
				C327.1,113.7,327.8,114.1,328.5,114.1z M314,310.6c-1,1-1,2.6,0,3.5c0.5,0.5,1.1,0.7,1.8,0.7c0.6,0,1.3-0.2,1.8-0.7l0,0
				c1-1,1-2.6,0-3.5C316.6,309.6,315,309.6,314,310.6z M362,204.2c0-1.4-1.1-2.5-2.5-2.5c-1.4,0-2.5,1.1-2.5,2.5c0,0.1,0,0.1,0,0.2
				c0,0.1,0,0.1,0,0.2c0,1.4,1.1,2.5,2.5,2.5c1.4,0,2.5-1.1,2.5-2.5v0c0-0.1,0-0.1,0-0.2C362,204.3,362,204.2,362,204.2L362,204.2z
				 M358.8,221.9c-1.3-0.3-2.7,0.5-3,1.8c0,0.2-0.1,0.4-0.1,0.6c0,1.4,1.1,2.5,2.5,2.5c1.3,0,2.3-0.9,2.5-2.2
				C360.9,223.4,360.1,222.2,358.8,221.9z M315.6,99c0.6,0,1.3-0.2,1.8-0.7c1-1,1-2.6,0-3.5l0,0c-1-1-2.6-1-3.5,0c-1,1-1,2.6,0,3.5
				C314.3,98.7,315,99,315.6,99z M355.1,241.4c-1.3-0.3-2.7,0.5-3,1.8c-0.3,1.3,0.5,2.7,1.8,3c0.2,0.1,0.4,0.1,0.6,0.1
				c1.1,0,2.1-0.8,2.4-1.9l0,0C357.2,243.1,356.4,241.7,355.1,241.4z M349.3,260.4c-1.2-0.6-2.7-0.1-3.4,1.1
				c-0.1,0.2-0.1,0.3-0.2,0.5c-0.3,1.3,0.5,2.7,1.8,3c0.2,0.1,0.4,0.1,0.6,0.1c1,0,1.9-0.6,2.3-1.6C351,262.4,350.5,261,349.3,260.4
				z M354.4,167.4c0.2,0,0.4,0,0.5-0.1c1.4-0.3,2.2-1.6,1.9-3c0,0,0-0.1,0-0.1c-0.3-1.3-1.7-2.1-3-1.8c-1.3,0.3-2.2,1.6-1.9,3
				C352.2,166.6,353.2,167.4,354.4,167.4z M283.3,73.9c0.4,0.2,0.9,0.4,1.3,0.4c0.7,0,1.4-0.3,1.9-0.9c0.9-1.1,0.7-2.6-0.3-3.5
				c-0.1-0.1-0.3-0.2-0.5-0.3c-1.2-0.6-2.7-0.1-3.4,1.1C281.8,71.9,282.2,73.3,283.3,73.9z M247.6,58.2c0.2,0.1,0.5,0.1,0.7,0.1
				c1,0,2-0.6,2.3-1.6c0.5-1.3-0.2-2.7-1.5-3.2c-0.1,0-0.2-0.1-0.3-0.1c-1.3-0.3-2.7,0.5-3,1.8C245.5,56.5,246.3,57.8,247.6,58.2z
				 M248,350.7c-0.2,0-0.4,0.1-0.5,0.2c-1.2,0.6-1.7,2.1-1.1,3.4c0.4,0.9,1.3,1.4,2.2,1.4c0.3,0,0.6,0,0.8-0.1
				c1.2-0.4,1.9-1.7,1.6-3C250.7,351.2,249.3,350.4,248,350.7z M266,64.9c0.3,0.1,0.6,0.2,1,0.2c0.9,0,1.8-0.5,2.2-1.4
				c0.6-1.2,0.1-2.7-1.1-3.4c-0.1,0-0.2-0.1-0.3-0.1c-1.3-0.5-2.7,0.2-3.2,1.5C264.1,63,264.7,64.4,266,64.9z M228.9,355.1
				c-1.2,0.2-2.2,1.2-2.2,2.5c0,1.4,1.1,2.5,2.5,2.5c0.2,0,0.4,0,0.6-0.1c1.3-0.3,2.2-1.7,1.8-3
				C231.3,355.7,230.1,354.9,228.9,355.1z M228.5,53.9c0.1,0,0.3,0,0.4,0c1.2,0,2.2-0.8,2.5-2c0.3-1.4-0.6-2.7-2-2.9
				c-0.1,0-0.1,0-0.2,0c-1.4-0.2-2.6,0.8-2.8,2.2C226.2,52.5,227.2,53.7,228.5,53.9z M209,52.1c0,0,0.1,0,0.1,0c1.3,0,2.4-1,2.5-2.3
				c0.1-1.4-0.9-2.6-2.2-2.7c-1.5-0.1-2.8,1-2.8,2.5C206.6,50.9,207.7,52,209,52.1z M266.3,343.9c-1.1,0.5-1.8,1.7-1.5,2.9
				c0.3,1.1,1.3,1.9,2.4,1.9c0.2,0,0.4,0,0.6-0.1c0.2,0,0.4-0.1,0.5-0.2c1.2-0.6,1.7-2.1,1.1-3.4C268.9,344,267.5,343.5,266.3,343.9
				z M283.7,334.8c-0.2,0.1-0.5,0.3-0.7,0.5c-1,1-1,2.6,0,3.5c0.5,0.5,1.1,0.7,1.8,0.7c0.5,0,1-0.1,1.4-0.4c1-0.7,1.4-2.1,0.9-3.2
				C286.5,334.7,284.9,334.2,283.7,334.8z M299.6,323.7c-0.9,0.7-1.3,2-0.7,3.1c0.4,0.9,1.3,1.4,2.2,1.4c0.4,0,0.8-0.1,1.1-0.3
				c0.2-0.1,0.5-0.3,0.7-0.5c1-1,1-2.6,0-3.5C302,323,300.6,322.9,299.6,323.7z M209.4,356.9c-1.4,0-2.5,1.1-2.5,2.5
				c0,1.4,1.1,2.5,2.5,2.5h0c1.4,0,2.5-1.1,2.5-2.5C211.9,358.1,210.8,356.9,209.4,356.9z M72.9,287.1c-1.1,0.8-1.3,2.4-0.5,3.5
				c0,0,0.1,0.1,0.1,0.1c0.5,0.6,1.2,0.9,1.9,0.9c0.6,0,1.1-0.2,1.6-0.6c1-0.9,1.2-2.4,0.4-3.5C75.6,286.5,74,286.3,72.9,287.1z
				 M168.5,353.7c-1.1,0.8-1.3,2.4-0.5,3.5c0,0,0.1,0.1,0.1,0.1c0.5,0.6,1.2,0.9,1.9,0.9c0.6,0,1.1-0.2,1.6-0.6
				c1-0.9,1.2-2.4,0.4-3.5C171.1,353.1,169.6,352.9,168.5,353.7z"/>
		</g>
	</g>
</g>
<g>
	<g>
		<path class="st3" d="M256.5,159.5v111.7H151.9V137.7h82.8L256.5,159.5z"/>
		<path class="st3" d="M232.7,138.2V160h24.4"/>
	</g>
	<g>
		<g>
			<path class="st4" d="M193.7,188.3l10.9-10.9l10.9,10.9"/>
			<path class="st4" d="M204.5,180.8v39.5"/>
		</g>
		<path class="st4" d="M191.6,231.6h25.8"/>
	</g>
</g>
</svg>
